<?xml version="1.0" standalone="no"?>
<!DOCTYPE svg PUBLIC "-//W3C//DTD SVG 20010904//EN"
 "http://www.w3.org/TR/2001/REC-SVG-20010904/DTD/svg10.dtd">
<svg version="1.0" xmlns="http://www.w3.org/2000/svg"
 width="500.000000pt" height="500.000000pt" viewBox="0 0 500.000000 500.000000"
 preserveAspectRatio="xMidYMid meet">

<g transform="translate(0.000000,500.000000) scale(0.100000,-0.100000)"
fill="#000000" stroke="none">
<path d="M3260 3453 c-19 -2 -84 -13 -145 -24 -339 -63 -610 -212 -695 -381
-80 -161 0 -268 355 -478 176 -104 261 -158 275 -175 8 -10 -3 -21 -53 -49
-124 -69 -160 -145 -98 -207 26 -26 36 -29 93 -29 80 0 163 24 195 56 22 22
25 32 21 72 -3 29 -15 64 -32 89 -15 23 -25 46 -22 51 3 5 34 15 68 22 35 6
71 14 81 17 15 4 17 -3 17 -55 0 -43 4 -61 14 -65 20 -8 33 10 55 75 27 77 50
120 64 115 7 -2 16 -27 22 -57 13 -71 37 -87 88 -61 l36 18 3 -26 c2 -15 14
-31 29 -40 34 -19 82 -1 106 40 20 34 33 37 33 9 0 -26 40 -45 76 -36 16 4 45
25 65 47 20 21 44 39 54 39 15 0 16 -6 11 -45 -8 -52 -2 -81 20 -89 25 -10 72
22 93 62 20 36 20 36 21 10 0 -21 5 -28 19 -28 13 0 26 17 44 60 15 33 31 60
37 60 5 0 10 -20 10 -45 0 -67 23 -58 62 22 46 94 58 93 58 -4 0 -48 5 -84 12
-91 19 -19 54 -14 86 13 l29 24 11 -24 c6 -13 22 -27 36 -31 31 -7 84 20 98
51 14 32 24 32 32 1 13 -50 88 -45 136 10 41 47 38 64 -4 20 -59 -64 -102 -39
-90 53 6 50 -7 74 -28 53 -6 -6 -29 -9 -52 -6 -52 6 -96 -19 -119 -69 -20 -42
-61 -77 -90 -77 -18 0 -19 4 -13 71 5 49 4 75 -5 85 -17 21 -62 17 -93 -7 -20
-16 -30 -19 -39 -10 -20 20 -45 11 -67 -24 -25 -40 -35 -44 -43 -15 -7 29 -27
25 -27 -5 0 -28 -31 -95 -52 -112 -34 -29 -43 -20 -43 42 l0 60 -33 3 c-31 3
-33 5 -27 34 6 27 5 29 -17 26 -20 -3 -23 -8 -23 -46 0 -68 -61 -118 -95 -77
-9 11 -11 32 -6 70 6 56 -4 76 -28 55 -8 -6 -26 -8 -40 -4 -44 11 -78 -5 -132
-62 -29 -30 -56 -54 -61 -54 -22 1 -32 20 -38 70 -8 67 -10 70 -43 70 -32 -1
-49 -13 -82 -59 -13 -19 -25 -30 -27 -24 -2 5 10 101 27 214 17 112 34 254 37
314 5 101 4 112 -15 135 l-21 25 -21 -21 c-35 -35 -42 -87 -47 -381 l-5 -281
-67 -12 c-36 -6 -81 -16 -99 -21 -31 -10 -38 -7 -100 33 -37 25 -134 84 -217
133 -364 214 -450 324 -366 470 39 68 140 160 233 213 197 112 557 197 729
172 80 -12 114 -23 156 -56 91 -69 85 -180 -15 -301 -31 -38 -32 -43 -14 -43
44 0 141 149 142 218 0 69 -56 143 -133 176 -70 29 -195 41 -307 29z m146
-507 c-4 -61 -14 -154 -21 -206 l-15 -95 5 196 c5 200 9 234 27 222 7 -4 8
-44 4 -117z m344 -476 c13 -8 12 -16 -9 -56 -26 -48 -63 -80 -81 -69 -25 16 1
103 37 124 22 13 34 13 53 1z m870 0 c12 -8 11 -15 -7 -54 -25 -51 -68 -85
-85 -68 -16 16 0 81 27 108 26 26 41 29 65 14z m-1487 -162 c57 -88 19 -158
-94 -173 -93 -13 -143 31 -115 100 16 38 123 115 160 115 14 0 31 -15 49 -42z"/>
<path d="M924 3385 c-27 -42 -100 -261 -195 -588 -136 -468 -142 -474 -174
-170 -21 200 -42 328 -61 365 -15 29 -44 37 -62 15 -33 -39 -103 -335 -148
-624 -10 -62 -21 -110 -26 -107 -11 7 -10 257 2 624 5 162 7 310 4 328 -7 34
-28 43 -38 16 -9 -22 -20 -1055 -12 -1087 5 -20 13 -27 31 -27 30 0 32 7 80
285 68 391 106 565 124 565 16 0 59 -278 76 -495 10 -115 17 -135 50 -135 22
0 30 10 55 63 16 34 61 170 101 302 91 308 179 577 191 590 14 14 5 -94 -42
-530 -68 -625 -92 -928 -76 -989 5 -22 11 -27 34 -24 23 3 33 16 70 88 23 47
76 166 118 265 42 99 89 201 106 227 l30 48 28 -30 c25 -27 31 -29 56 -20 15
6 33 18 40 28 12 16 13 15 14 -3 1 -55 54 -59 110 -9 l40 36 0 -52 c0 -44 3
-51 18 -48 13 2 18 15 20 56 2 28 5 52 6 52 2 0 22 -18 44 -40 24 -25 49 -40
64 -40 24 0 110 48 123 70 5 8 14 1 26 -19 23 -38 68 -42 99 -9 19 21 20 21
20 2 0 -56 56 -58 114 -4 l44 41 11 -33 c16 -46 50 -78 83 -78 35 0 83 43 103
93 18 43 12 50 -9 9 -20 -39 -66 -82 -87 -82 -26 0 -49 39 -56 98 -4 41 0 64
26 132 42 110 71 260 71 365 0 92 -8 118 -41 136 -69 36 -113 -150 -108 -453
l3 -168 -34 -35 c-22 -22 -42 -35 -55 -33 -18 3 -20 12 -23 86 -2 72 -5 83
-20 80 -11 -2 -22 -22 -32 -59 -32 -119 -76 -130 -82 -21 -2 43 -7 57 -18 57
-10 0 -16 -12 -18 -37 -2 -29 -11 -44 -35 -62 -68 -52 -112 -52 -160 2 -17 19
-17 20 17 40 41 24 71 66 62 87 -3 10 -19 15 -42 15 -28 0 -43 -7 -67 -32 -21
-23 -28 -27 -23 -13 16 44 77 319 87 394 12 86 1 132 -32 139 -57 11 -83 -111
-95 -435 l-7 -182 -33 -31 c-18 -19 -40 -30 -50 -28 -16 3 -19 15 -22 86 -2
72 -5 83 -20 80 -11 -2 -22 -22 -32 -59 -32 -118 -70 -128 -80 -21 -6 67 -31
80 -41 22 -3 -19 -23 -60 -44 -90 -41 -61 -98 -173 -200 -392 -65 -140 -85
-171 -85 -130 0 81 43 527 96 1002 41 367 49 553 22 558 -10 2 -24 -8 -34 -23z
m1220 -493 c-1 -113 -29 -258 -65 -337 l-19 -40 6 130 c7 164 30 343 45 361
24 29 34 -5 33 -114z m-584 53 c0 -46 -43 -289 -60 -340 -7 -22 -8 -2 -4 75 6
124 23 265 35 298 13 35 29 17 29 -33z m20 -456 c-11 -20 -68 -54 -77 -45 -8
7 29 54 52 64 27 13 37 5 25 -19z"/>
</g>
</svg>
